<mxfile host="app.diagrams.net" modified="2022-04-12T07:26:28.512Z" agent="5.0 (Windows NT 10.0; Win64; x64) AppleWebKit/537.36 (KHTML, like Gecko) Chrome/100.0.4896.75 Safari/537.36 Edg/100.0.1185.36" etag="Lo6MxToX_Q0g5CjoqApb" version="17.2.4" type="github" pages="2">
  <diagram name="UML" id="9f46799a-70d6-7492-0946-bef42562c5a5">
    <mxGraphModel dx="982" dy="359" grid="1" gridSize="10" guides="1" tooltips="1" connect="1" arrows="1" fold="1" page="1" pageScale="1" pageWidth="1100" pageHeight="850" background="none" math="0" shadow="0">
      <root>
        <mxCell id="0" />
        <mxCell id="1" parent="0" />
        <mxCell id="ZwuZ58h4NQ7gW0yGh3w9-2" value="GUI" style="swimlane;fontStyle=1;align=center;verticalAlign=top;childLayout=stackLayout;horizontal=1;startSize=26;horizontalStack=0;resizeParent=1;resizeParentMax=0;resizeLast=0;collapsible=1;marginBottom=0;fillColor=#647687;fontColor=#ffffff;strokeColor=#314354;" vertex="1" parent="1">
          <mxGeometry x="410" y="10" width="380" height="150" as="geometry" />
        </mxCell>
        <mxCell id="ZwuZ58h4NQ7gW0yGh3w9-3" value="- task_managerÂ &#xa;- (GUI settings)" style="text;strokeColor=none;fillColor=none;align=left;verticalAlign=top;spacingLeft=4;spacingRight=4;overflow=hidden;rotatable=0;points=[[0,0.5],[1,0.5]];portConstraint=eastwest;" vertex="1" parent="ZwuZ58h4NQ7gW0yGh3w9-2">
          <mxGeometry y="26" width="380" height="34" as="geometry" />
        </mxCell>
        <mxCell id="ZwuZ58h4NQ7gW0yGh3w9-4" value="" style="line;strokeWidth=1;fillColor=none;align=left;verticalAlign=middle;spacingTop=-1;spacingLeft=3;spacingRight=3;rotatable=0;labelPosition=right;points=[];portConstraint=eastwest;" vertex="1" parent="ZwuZ58h4NQ7gW0yGh3w9-2">
          <mxGeometry y="60" width="380" height="8" as="geometry" />
        </mxCell>
        <mxCell id="ZwuZ58h4NQ7gW0yGh3w9-5" value="+ update_chat_history(command:str, response:str, status_format:str)&#xa;+ update_task_list(tasks:list)&#xa;+ clear_input_box()&#xa;+ command_entered()&#xa;+ start()" style="text;strokeColor=none;fillColor=none;align=left;verticalAlign=top;spacingLeft=4;spacingRight=4;overflow=hidden;rotatable=0;points=[[0,0.5],[1,0.5]];portConstraint=eastwest;" vertex="1" parent="ZwuZ58h4NQ7gW0yGh3w9-2">
          <mxGeometry y="68" width="380" height="82" as="geometry" />
        </mxCell>
        <mxCell id="ZwuZ58h4NQ7gW0yGh3w9-6" value="TaskManager" style="swimlane;fontStyle=1;align=center;verticalAlign=top;childLayout=stackLayout;horizontal=1;startSize=26;horizontalStack=0;resizeParent=1;resizeParentMax=0;resizeLast=0;collapsible=1;marginBottom=0;fillColor=#dae8fc;strokeColor=#6c8ebf;gradientColor=#7ea6e0;fontColor=#FFFFFF;" vertex="1" parent="1">
          <mxGeometry x="410" y="232" width="200" height="252" as="geometry" />
        </mxCell>
        <mxCell id="ZwuZ58h4NQ7gW0yGh3w9-7" value="+ menu = list&#xa;+ sm = StorageManager()" style="text;strokeColor=none;fillColor=none;align=left;verticalAlign=top;spacingLeft=4;spacingRight=4;overflow=hidden;rotatable=0;points=[[0,0.5],[1,0.5]];portConstraint=eastwest;fontStyle=4" vertex="1" parent="ZwuZ58h4NQ7gW0yGh3w9-6">
          <mxGeometry y="26" width="200" height="30" as="geometry" />
        </mxCell>
        <mxCell id="ZwuZ58h4NQ7gW0yGh3w9-24" value="+ user_input = list" style="text;strokeColor=none;fillColor=none;align=left;verticalAlign=top;spacingLeft=4;spacingRight=4;overflow=hidden;rotatable=0;points=[[0,0.5],[1,0.5]];portConstraint=eastwest;fontStyle=0" vertex="1" parent="ZwuZ58h4NQ7gW0yGh3w9-6">
          <mxGeometry y="56" width="200" height="20" as="geometry" />
        </mxCell>
        <mxCell id="ZwuZ58h4NQ7gW0yGh3w9-8" value="" style="line;strokeWidth=1;fillColor=none;align=left;verticalAlign=middle;spacingTop=-1;spacingLeft=3;spacingRight=3;rotatable=0;labelPosition=right;points=[];portConstraint=eastwest;" vertex="1" parent="ZwuZ58h4NQ7gW0yGh3w9-6">
          <mxGeometry y="76" width="200" height="8" as="geometry" />
        </mxCell>
        <mxCell id="ZwuZ58h4NQ7gW0yGh3w9-9" value="# init(): list&#xa;+ get_help() : str&#xa;+ execute_command(inp:list) : str&#xa;+ todo() : str&#xa;+ completed() : str&#xa;+ remove() : str&#xa;+ pend() : str&#xa;+ deadline() : str&#xa;+ deadline() : str&#xa;+ progress() : str&#xa;+ deadline_check(date:str): str" style="text;strokeColor=none;fillColor=none;align=left;verticalAlign=top;spacingLeft=4;spacingRight=4;overflow=hidden;rotatable=0;points=[[0,0.5],[1,0.5]];portConstraint=eastwest;" vertex="1" parent="ZwuZ58h4NQ7gW0yGh3w9-6">
          <mxGeometry y="84" width="200" height="168" as="geometry" />
        </mxCell>
        <mxCell id="ZwuZ58h4NQ7gW0yGh3w9-14" value="StorageManager" style="swimlane;fontStyle=1;align=center;verticalAlign=top;childLayout=stackLayout;horizontal=1;startSize=26;horizontalStack=0;resizeParent=1;resizeParentMax=0;resizeLast=0;collapsible=1;marginBottom=0;fillColor=#f8cecc;gradientColor=#ea6b66;strokeColor=#b85450;fontColor=#FFFFFF;" vertex="1" parent="1">
          <mxGeometry x="630" y="374" width="160" height="110" as="geometry" />
        </mxCell>
        <mxCell id="ZwuZ58h4NQ7gW0yGh3w9-15" value="+ menu = list&#xa;" style="text;strokeColor=none;fillColor=none;align=left;verticalAlign=top;spacingLeft=4;spacingRight=4;overflow=hidden;rotatable=0;points=[[0,0.5],[1,0.5]];portConstraint=eastwest;fontStyle=4" vertex="1" parent="ZwuZ58h4NQ7gW0yGh3w9-14">
          <mxGeometry y="26" width="160" height="16" as="geometry" />
        </mxCell>
        <mxCell id="ZwuZ58h4NQ7gW0yGh3w9-18" value="- path = str" style="text;strokeColor=none;fillColor=none;align=left;verticalAlign=top;spacingLeft=4;spacingRight=4;overflow=hidden;rotatable=0;points=[[0,0.5],[1,0.5]];portConstraint=eastwest;fontStyle=0" vertex="1" parent="ZwuZ58h4NQ7gW0yGh3w9-14">
          <mxGeometry y="42" width="160" height="22" as="geometry" />
        </mxCell>
        <mxCell id="ZwuZ58h4NQ7gW0yGh3w9-16" value="" style="line;strokeWidth=1;fillColor=none;align=left;verticalAlign=middle;spacingTop=-1;spacingLeft=3;spacingRight=3;rotatable=0;labelPosition=right;points=[];portConstraint=eastwest;" vertex="1" parent="ZwuZ58h4NQ7gW0yGh3w9-14">
          <mxGeometry y="64" width="160" height="6" as="geometry" />
        </mxCell>
        <mxCell id="ZwuZ58h4NQ7gW0yGh3w9-17" value="# init(filename:str): list&#xa;+ write_csv(data:list) : csv" style="text;strokeColor=none;fillColor=none;align=left;verticalAlign=top;spacingLeft=4;spacingRight=4;overflow=hidden;rotatable=0;points=[[0,0.5],[1,0.5]];portConstraint=eastwest;" vertex="1" parent="ZwuZ58h4NQ7gW0yGh3w9-14">
          <mxGeometry y="70" width="160" height="40" as="geometry" />
        </mxCell>
        <mxCell id="ZwuZ58h4NQ7gW0yGh3w9-19" value="ToDo" style="swimlane;fontStyle=1;align=center;verticalAlign=top;childLayout=stackLayout;horizontal=1;startSize=26;horizontalStack=0;resizeParent=1;resizeParentMax=0;resizeLast=0;collapsible=1;marginBottom=0;fillColor=#d80073;fontColor=#ffffff;strokeColor=#A50040;" vertex="1" parent="1">
          <mxGeometry x="69" y="10" width="240" height="210" as="geometry" />
        </mxCell>
        <mxCell id="ZwuZ58h4NQ7gW0yGh3w9-20" value="+ comTd = int" style="text;strokeColor=none;fillColor=none;align=left;verticalAlign=top;spacingLeft=4;spacingRight=4;overflow=hidden;rotatable=0;points=[[0,0.5],[1,0.5]];portConstraint=eastwest;fontStyle=4" vertex="1" parent="ZwuZ58h4NQ7gW0yGh3w9-19">
          <mxGeometry y="26" width="240" height="18" as="geometry" />
        </mxCell>
        <mxCell id="ZwuZ58h4NQ7gW0yGh3w9-23" value="+ description = str&#xa;+ done = Bool&#xa;+ idx = str" style="text;strokeColor=none;fillColor=none;align=left;verticalAlign=top;spacingLeft=4;spacingRight=4;overflow=hidden;rotatable=0;points=[[0,0.5],[1,0.5]];portConstraint=eastwest;fontStyle=0" vertex="1" parent="ZwuZ58h4NQ7gW0yGh3w9-19">
          <mxGeometry y="44" width="240" height="48" as="geometry" />
        </mxCell>
        <mxCell id="ZwuZ58h4NQ7gW0yGh3w9-21" value="" style="line;strokeWidth=1;fillColor=none;align=left;verticalAlign=middle;spacingTop=-1;spacingLeft=3;spacingRight=3;rotatable=0;labelPosition=right;points=[];portConstraint=eastwest;" vertex="1" parent="ZwuZ58h4NQ7gW0yGh3w9-19">
          <mxGeometry y="92" width="240" height="8" as="geometry" />
        </mxCell>
        <mxCell id="ZwuZ58h4NQ7gW0yGh3w9-22" value="# init(description:str, idx:str, status:Bool)&#xa;+ chg_idx(new:str)&#xa;+ completed()&#xa;+ undone()&#xa;+ value()&#xa;+ com()&#xa;+ progress()" style="text;strokeColor=none;fillColor=none;align=left;verticalAlign=top;spacingLeft=4;spacingRight=4;overflow=hidden;rotatable=0;points=[[0,0.5],[1,0.5]];portConstraint=eastwest;" vertex="1" parent="ZwuZ58h4NQ7gW0yGh3w9-19">
          <mxGeometry y="100" width="240" height="110" as="geometry" />
        </mxCell>
        <mxCell id="ZwuZ58h4NQ7gW0yGh3w9-25" value="Deadline" style="swimlane;fontStyle=1;align=center;verticalAlign=top;childLayout=stackLayout;horizontal=1;startSize=26;horizontalStack=0;resizeParent=1;resizeParentMax=0;resizeLast=0;collapsible=1;marginBottom=0;fillColor=#76608a;fontColor=#ffffff;strokeColor=#432D57;" vertex="1" parent="1">
          <mxGeometry x="69" y="260" width="240" height="224" as="geometry" />
        </mxCell>
        <mxCell id="ZwuZ58h4NQ7gW0yGh3w9-26" value="+ comDL = int" style="text;strokeColor=none;fillColor=none;align=left;verticalAlign=top;spacingLeft=4;spacingRight=4;overflow=hidden;rotatable=0;points=[[0,0.5],[1,0.5]];portConstraint=eastwest;fontStyle=4" vertex="1" parent="ZwuZ58h4NQ7gW0yGh3w9-25">
          <mxGeometry y="26" width="240" height="18" as="geometry" />
        </mxCell>
        <mxCell id="ZwuZ58h4NQ7gW0yGh3w9-27" value="+ description = str&#xa;+ done = Bool&#xa;+ idx = str&#xa;+ deadline = str" style="text;strokeColor=none;fillColor=none;align=left;verticalAlign=top;spacingLeft=4;spacingRight=4;overflow=hidden;rotatable=0;points=[[0,0.5],[1,0.5]];portConstraint=eastwest;fontStyle=0" vertex="1" parent="ZwuZ58h4NQ7gW0yGh3w9-25">
          <mxGeometry y="44" width="240" height="62" as="geometry" />
        </mxCell>
        <mxCell id="ZwuZ58h4NQ7gW0yGh3w9-28" value="" style="line;strokeWidth=1;fillColor=none;align=left;verticalAlign=middle;spacingTop=-1;spacingLeft=3;spacingRight=3;rotatable=0;labelPosition=right;points=[];portConstraint=eastwest;" vertex="1" parent="ZwuZ58h4NQ7gW0yGh3w9-25">
          <mxGeometry y="106" width="240" height="8" as="geometry" />
        </mxCell>
        <mxCell id="ZwuZ58h4NQ7gW0yGh3w9-29" value="# init(description:str, idx:str, status:Bool)&#xa;+ chg_idx(new:str)&#xa;+ completed()&#xa;+ undone()&#xa;+ value()&#xa;+ com()&#xa;+ progress()" style="text;strokeColor=none;fillColor=none;align=left;verticalAlign=top;spacingLeft=4;spacingRight=4;overflow=hidden;rotatable=0;points=[[0,0.5],[1,0.5]];portConstraint=eastwest;" vertex="1" parent="ZwuZ58h4NQ7gW0yGh3w9-25">
          <mxGeometry y="114" width="240" height="110" as="geometry" />
        </mxCell>
        <mxCell id="ZwuZ58h4NQ7gW0yGh3w9-30" value="" style="endArrow=block;endFill=0;endSize=12;html=1;rounded=0;exitX=0.5;exitY=0;exitDx=0;exitDy=0;entryX=0.5;entryY=1;entryDx=0;entryDy=0;entryPerimeter=0;" edge="1" parent="1" source="ZwuZ58h4NQ7gW0yGh3w9-25" target="ZwuZ58h4NQ7gW0yGh3w9-22">
          <mxGeometry width="160" relative="1" as="geometry">
            <mxPoint x="239" y="380" as="sourcePoint" />
            <mxPoint x="799" y="550" as="targetPoint" />
          </mxGeometry>
        </mxCell>
        <mxCell id="ZwuZ58h4NQ7gW0yGh3w9-32" value="&lt;b&gt;Validate_date(date:str)&lt;/b&gt;" style="html=1;fillColor=#d5e8d4;gradientColor=#97d077;strokeColor=#82b366;fontColor=#FFFFFF;" vertex="1" parent="1">
          <mxGeometry x="655" y="232" width="135" height="50" as="geometry" />
        </mxCell>
        <mxCell id="ZwuZ58h4NQ7gW0yGh3w9-33" value="1" style="endArrow=open;html=1;endSize=12;startArrow=diamondThin;startSize=14;startFill=1;edgeStyle=orthogonalEdgeStyle;align=left;verticalAlign=bottom;rounded=0;exitX=0.247;exitY=1.001;exitDx=0;exitDy=0;exitPerimeter=0;" edge="1" parent="1" source="ZwuZ58h4NQ7gW0yGh3w9-5">
          <mxGeometry x="0.9988" y="6" relative="1" as="geometry">
            <mxPoint x="380" y="180" as="sourcePoint" />
            <mxPoint x="504" y="230" as="targetPoint" />
            <mxPoint as="offset" />
          </mxGeometry>
        </mxCell>
        <mxCell id="ZwuZ58h4NQ7gW0yGh3w9-34" value="" style="endArrow=open;html=1;endSize=12;startArrow=diamondThin;startSize=14;startFill=1;edgeStyle=orthogonalEdgeStyle;align=left;verticalAlign=bottom;rounded=0;entryX=1;entryY=0.5;entryDx=0;entryDy=0;exitX=0.001;exitY=0.117;exitDx=0;exitDy=0;exitPerimeter=0;" edge="1" parent="1" source="ZwuZ58h4NQ7gW0yGh3w9-9" target="ZwuZ58h4NQ7gW0yGh3w9-27">
          <mxGeometry x="-0.4074" y="-16" relative="1" as="geometry">
            <mxPoint x="310" y="320" as="sourcePoint" />
            <mxPoint x="470" y="320" as="targetPoint" />
            <mxPoint as="offset" />
          </mxGeometry>
        </mxCell>
        <mxCell id="ZwuZ58h4NQ7gW0yGh3w9-35" value="" style="endArrow=open;html=1;endSize=12;startArrow=diamondThin;startSize=14;startFill=1;edgeStyle=orthogonalEdgeStyle;align=left;verticalAlign=bottom;rounded=0;exitX=0.25;exitY=0;exitDx=0;exitDy=0;" edge="1" parent="1" source="ZwuZ58h4NQ7gW0yGh3w9-6" target="ZwuZ58h4NQ7gW0yGh3w9-22">
          <mxGeometry x="-0.8987" y="-10" relative="1" as="geometry">
            <mxPoint x="270" y="210" as="sourcePoint" />
            <mxPoint x="430" y="210" as="targetPoint" />
            <Array as="points">
              <mxPoint x="460" y="190" />
            </Array>
            <mxPoint as="offset" />
          </mxGeometry>
        </mxCell>
        <mxCell id="ZwuZ58h4NQ7gW0yGh3w9-37" value="1" style="endArrow=open;html=1;endSize=12;startArrow=diamondThin;startSize=14;startFill=1;edgeStyle=orthogonalEdgeStyle;align=left;verticalAlign=bottom;rounded=0;entryX=0.54;entryY=0.003;entryDx=0;entryDy=0;exitX=1.013;exitY=0.189;exitDx=0;exitDy=0;exitPerimeter=0;entryPerimeter=0;" edge="1" parent="1" source="ZwuZ58h4NQ7gW0yGh3w9-9" target="ZwuZ58h4NQ7gW0yGh3w9-14">
          <mxGeometry x="0.9336" y="14" relative="1" as="geometry">
            <mxPoint x="420.1999999999998" y="345.65600000000006" as="sourcePoint" />
            <mxPoint x="300" y="345" as="targetPoint" />
            <mxPoint as="offset" />
          </mxGeometry>
        </mxCell>
        <mxCell id="ZwuZ58h4NQ7gW0yGh3w9-38" value="0....*" style="text;html=1;strokeColor=none;fillColor=none;align=center;verticalAlign=middle;whiteSpace=wrap;rounded=0;" vertex="1" parent="1">
          <mxGeometry x="300" y="160" width="60" height="30" as="geometry" />
        </mxCell>
        <mxCell id="ZwuZ58h4NQ7gW0yGh3w9-39" value="0....*" style="text;html=1;strokeColor=none;fillColor=none;align=center;verticalAlign=middle;whiteSpace=wrap;rounded=0;" vertex="1" parent="1">
          <mxGeometry x="300" y="300" width="60" height="30" as="geometry" />
        </mxCell>
        <mxCell id="ZwuZ58h4NQ7gW0yGh3w9-41" value="" style="shape=mxgraph.arrows2.wedgeArrow;html=1;fillColor=#000000;bendable=0;rounded=0;" edge="1" parent="1">
          <mxGeometry width="100" height="100" relative="1" as="geometry">
            <mxPoint x="372" y="184.97" as="sourcePoint" />
            <mxPoint x="362" y="184.97" as="targetPoint" />
          </mxGeometry>
        </mxCell>
        <mxCell id="ZwuZ58h4NQ7gW0yGh3w9-42" value="1" style="endArrow=open;html=1;endSize=12;startArrow=diamondThin;startSize=14;startFill=1;edgeStyle=orthogonalEdgeStyle;align=left;verticalAlign=bottom;rounded=0;exitX=1.004;exitY=0.074;exitDx=0;exitDy=0;exitPerimeter=0;entryX=0;entryY=0.374;entryDx=0;entryDy=0;entryPerimeter=0;" edge="1" parent="1" source="ZwuZ58h4NQ7gW0yGh3w9-6" target="ZwuZ58h4NQ7gW0yGh3w9-32">
          <mxGeometry x="0.3254" y="11" relative="1" as="geometry">
            <mxPoint x="513.8600000000001" y="170.082" as="sourcePoint" />
            <mxPoint x="514" y="240" as="targetPoint" />
            <mxPoint as="offset" />
          </mxGeometry>
        </mxCell>
        <mxCell id="ZwuZ58h4NQ7gW0yGh3w9-43" value="contains" style="text;html=1;strokeColor=none;fillColor=none;align=center;verticalAlign=middle;whiteSpace=wrap;rounded=0;" vertex="1" parent="1">
          <mxGeometry x="366" y="168" width="60" height="30" as="geometry" />
        </mxCell>
        <mxCell id="ZwuZ58h4NQ7gW0yGh3w9-44" value="" style="shape=mxgraph.arrows2.wedgeArrow;html=1;fillColor=#000000;bendable=0;rounded=0;" edge="1" parent="1">
          <mxGeometry width="100" height="100" relative="1" as="geometry">
            <mxPoint x="340" y="330.97" as="sourcePoint" />
            <mxPoint x="330" y="330.97" as="targetPoint" />
          </mxGeometry>
        </mxCell>
        <mxCell id="ZwuZ58h4NQ7gW0yGh3w9-45" value="contains" style="text;html=1;strokeColor=none;fillColor=none;align=center;verticalAlign=middle;whiteSpace=wrap;rounded=0;" vertex="1" parent="1">
          <mxGeometry x="334" y="314" width="60" height="30" as="geometry" />
        </mxCell>
        <mxCell id="ZwuZ58h4NQ7gW0yGh3w9-46" value="" style="shape=mxgraph.arrows2.wedgeArrow;html=1;fillColor=#000000;bendable=0;rounded=0;" edge="1" parent="1">
          <mxGeometry width="100" height="100" relative="1" as="geometry">
            <mxPoint x="513" y="191.97000000000003" as="sourcePoint" />
            <mxPoint x="513" y="206" as="targetPoint" />
          </mxGeometry>
        </mxCell>
        <mxCell id="ZwuZ58h4NQ7gW0yGh3w9-47" value="call methods of" style="text;html=1;strokeColor=none;fillColor=none;align=center;verticalAlign=middle;whiteSpace=wrap;rounded=0;" vertex="1" parent="1">
          <mxGeometry x="504" y="168" width="92" height="30" as="geometry" />
        </mxCell>
        <mxCell id="ZwuZ58h4NQ7gW0yGh3w9-48" value="read/write using" style="text;html=1;strokeColor=none;fillColor=none;align=center;verticalAlign=middle;whiteSpace=wrap;rounded=0;" vertex="1" parent="1">
          <mxGeometry x="627" y="325" width="92" height="30" as="geometry" />
        </mxCell>
        <mxCell id="ZwuZ58h4NQ7gW0yGh3w9-49" value="" style="shape=mxgraph.arrows2.wedgeArrow;html=1;fillColor=#000000;bendable=0;rounded=0;" edge="1" parent="1">
          <mxGeometry width="100" height="100" relative="1" as="geometry">
            <mxPoint x="722.38" y="340.97" as="sourcePoint" />
            <mxPoint x="722.38" y="355" as="targetPoint" />
          </mxGeometry>
        </mxCell>
      </root>
    </mxGraphModel>
  </diagram>
  <diagram id="EYr3Eko0pQ3Fg2nuvDk1" name="Object Diagram">
    <mxGraphModel dx="1178" dy="431" grid="1" gridSize="10" guides="1" tooltips="1" connect="1" arrows="1" fold="1" page="1" pageScale="1" pageWidth="827" pageHeight="1169" math="0" shadow="0">
      <root>
        <mxCell id="0" />
        <mxCell id="1" parent="0" />
        <mxCell id="1DBgugd92XxTER6m6FTS-2" value="&#39;Pick up parcel&#39;:ToDo" style="swimlane;fontStyle=4;childLayout=stackLayout;horizontal=1;startSize=26;fillColor=#d80073;horizontalStack=0;resizeParent=1;resizeParentMax=0;resizeLast=0;collapsible=1;marginBottom=0;strokeColor=#A50040;fontColor=#000000;" vertex="1" parent="1">
          <mxGeometry x="30" y="439" width="170" height="80" as="geometry" />
        </mxCell>
        <mxCell id="1DBgugd92XxTER6m6FTS-4" value="description = &#39;Pick up parcel&#39;Â &#xa;done = False&#xa;idx = &#39;1&#39;" style="text;strokeColor=none;fillColor=none;align=left;verticalAlign=top;spacingLeft=4;spacingRight=4;overflow=hidden;rotatable=0;points=[[0,0.5],[1,0.5]];portConstraint=eastwest;" vertex="1" parent="1DBgugd92XxTER6m6FTS-2">
          <mxGeometry y="26" width="170" height="54" as="geometry" />
        </mxCell>
        <mxCell id="BOptXhGEqJJCsXxz0c24-1" value="&#39;Throw out trash&#39;:Deadline" style="swimlane;fontStyle=4;childLayout=stackLayout;horizontal=1;startSize=26;fillColor=#d80073;horizontalStack=0;resizeParent=1;resizeParentMax=0;resizeLast=0;collapsible=1;marginBottom=0;strokeColor=#A50040;fontColor=#000000;" vertex="1" parent="1">
          <mxGeometry x="30" y="304" width="170" height="96" as="geometry" />
        </mxCell>
        <mxCell id="BOptXhGEqJJCsXxz0c24-2" value="description = &#39;Throw out trash&#39;Â &#xa;done = False&#xa;idx = &#39;2&#39;&#xa;deadline = &#39;12Apr22&#xa;" style="text;strokeColor=none;fillColor=none;align=left;verticalAlign=top;spacingLeft=4;spacingRight=4;overflow=hidden;rotatable=0;points=[[0,0.5],[1,0.5]];portConstraint=eastwest;" vertex="1" parent="BOptXhGEqJJCsXxz0c24-1">
          <mxGeometry y="26" width="170" height="70" as="geometry" />
        </mxCell>
        <mxCell id="BOptXhGEqJJCsXxz0c24-3" value="task_manager:TaskManager" style="swimlane;fontStyle=4;childLayout=stackLayout;horizontal=1;startSize=26;fillColor=#dae8fc;horizontalStack=0;resizeParent=1;resizeParentMax=0;resizeLast=0;collapsible=1;marginBottom=0;strokeColor=#6c8ebf;gradientColor=#7ea6e0;" vertex="1" parent="1">
          <mxGeometry x="270" y="304" width="340" height="104" as="geometry" />
        </mxCell>
        <mxCell id="BOptXhGEqJJCsXxz0c24-4" value="+ menu = [ &#39;Pick up parcel&#39;:ToDo, &#39;Throw out trash&#39;:Deadline]" style="text;strokeColor=none;fillColor=none;align=left;verticalAlign=top;spacingLeft=4;spacingRight=4;overflow=hidden;rotatable=0;points=[[0,0.5],[1,0.5]];portConstraint=eastwest;fontStyle=0" vertex="1" parent="BOptXhGEqJJCsXxz0c24-3">
          <mxGeometry y="26" width="340" height="26" as="geometry" />
        </mxCell>
        <mxCell id="BOptXhGEqJJCsXxz0c24-5" value="+ sm = StorageManager()" style="text;strokeColor=none;fillColor=none;align=left;verticalAlign=top;spacingLeft=4;spacingRight=4;overflow=hidden;rotatable=0;points=[[0,0.5],[1,0.5]];portConstraint=eastwest;fontStyle=4" vertex="1" parent="BOptXhGEqJJCsXxz0c24-3">
          <mxGeometry y="52" width="340" height="26" as="geometry" />
        </mxCell>
        <mxCell id="BOptXhGEqJJCsXxz0c24-6" value="+ user_input = list" style="text;strokeColor=none;fillColor=none;align=left;verticalAlign=top;spacingLeft=4;spacingRight=4;overflow=hidden;rotatable=0;points=[[0,0.5],[1,0.5]];portConstraint=eastwest;" vertex="1" parent="BOptXhGEqJJCsXxz0c24-3">
          <mxGeometry y="78" width="340" height="26" as="geometry" />
        </mxCell>
        <mxCell id="5cB7490FCOMJmC2RYFwi-11" style="edgeStyle=orthogonalEdgeStyle;rounded=0;orthogonalLoop=1;jettySize=auto;html=1;exitX=1;exitY=0.5;exitDx=0;exitDy=0;labelBackgroundColor=none;" edge="1" parent="BOptXhGEqJJCsXxz0c24-3" source="BOptXhGEqJJCsXxz0c24-5" target="BOptXhGEqJJCsXxz0c24-5">
          <mxGeometry relative="1" as="geometry" />
        </mxCell>
        <mxCell id="geb1Uy26zj3V8sluNseR-1" value="Validate_date(date:str)" style="html=1;fillColor=#d5e8d4;gradientColor=#97d077;strokeColor=#82b366;" vertex="1" parent="1">
          <mxGeometry x="670" y="305" width="135" height="50" as="geometry" />
        </mxCell>
        <mxCell id="5cB7490FCOMJmC2RYFwi-6" value="sm:StorageManager" style="swimlane;fontStyle=4;childLayout=stackLayout;horizontal=1;startSize=26;fillColor=#f8cecc;horizontalStack=0;resizeParent=1;resizeParentMax=0;resizeLast=0;collapsible=1;marginBottom=0;gradientColor=#ea6b66;strokeColor=#b85450;" vertex="1" parent="1">
          <mxGeometry x="270" y="440" width="340" height="78" as="geometry" />
        </mxCell>
        <mxCell id="5cB7490FCOMJmC2RYFwi-10" value="+ menu = [ &#39;Pick up parcel&#39;:ToDo, &#39;Throw out trash&#39;:Deadline]" style="text;strokeColor=none;fillColor=none;align=left;verticalAlign=top;spacingLeft=4;spacingRight=4;overflow=hidden;rotatable=0;points=[[0,0.5],[1,0.5]];portConstraint=eastwest;fontStyle=4" vertex="1" parent="5cB7490FCOMJmC2RYFwi-6">
          <mxGeometry y="26" width="340" height="26" as="geometry" />
        </mxCell>
        <mxCell id="5cB7490FCOMJmC2RYFwi-8" value="- path = &#39;Monty_list.csv&#39;" style="text;strokeColor=none;fillColor=none;align=left;verticalAlign=top;spacingLeft=4;spacingRight=4;overflow=hidden;rotatable=0;points=[[0,0.5],[1,0.5]];portConstraint=eastwest;" vertex="1" parent="5cB7490FCOMJmC2RYFwi-6">
          <mxGeometry y="52" width="340" height="26" as="geometry" />
        </mxCell>
        <mxCell id="45kYnqhVVTwknC7uXS52-5" value="GUI" style="swimlane;fontStyle=4;childLayout=stackLayout;horizontal=1;startSize=26;fillColor=#647687;horizontalStack=0;resizeParent=1;resizeParentMax=0;resizeLast=0;collapsible=1;marginBottom=0;strokeColor=#314354;fontColor=#000000;" vertex="1" parent="1">
          <mxGeometry x="345" y="180" width="190" height="78" as="geometry" />
        </mxCell>
        <mxCell id="45kYnqhVVTwknC7uXS52-6" value="- task_manager = TaskManager" style="text;strokeColor=none;fillColor=none;align=left;verticalAlign=top;spacingLeft=4;spacingRight=4;overflow=hidden;rotatable=0;points=[[0,0.5],[1,0.5]];portConstraint=eastwest;" vertex="1" parent="45kYnqhVVTwknC7uXS52-5">
          <mxGeometry y="26" width="190" height="26" as="geometry" />
        </mxCell>
        <mxCell id="45kYnqhVVTwknC7uXS52-8" value="- (GUI settings)" style="text;strokeColor=none;fillColor=none;align=left;verticalAlign=top;spacingLeft=4;spacingRight=4;overflow=hidden;rotatable=0;points=[[0,0.5],[1,0.5]];portConstraint=eastwest;" vertex="1" parent="45kYnqhVVTwknC7uXS52-5">
          <mxGeometry y="52" width="190" height="26" as="geometry" />
        </mxCell>
        <mxCell id="0v2_lxlh3j6db3kHDA83-1" value="calls" style="html=1;verticalAlign=bottom;endArrow=block;rounded=0;labelBackgroundColor=none;fontColor=#000000;exitX=0.5;exitY=0.997;exitDx=0;exitDy=0;exitPerimeter=0;entryX=0.5;entryY=0;entryDx=0;entryDy=0;" edge="1" parent="1" source="45kYnqhVVTwknC7uXS52-8" target="BOptXhGEqJJCsXxz0c24-3">
          <mxGeometry x="-0.0417" y="20" width="80" relative="1" as="geometry">
            <mxPoint x="290" y="360" as="sourcePoint" />
            <mxPoint x="370" y="360" as="targetPoint" />
            <mxPoint as="offset" />
          </mxGeometry>
        </mxCell>
        <mxCell id="sqNjKMXXMfO09ryWXXjb-1" value="uses" style="html=1;verticalAlign=bottom;endArrow=block;rounded=0;labelBackgroundColor=none;fontColor=#000000;entryX=0;entryY=0.5;entryDx=0;entryDy=0;exitX=1;exitY=0.25;exitDx=0;exitDy=0;" edge="1" parent="1" source="BOptXhGEqJJCsXxz0c24-3" target="geb1Uy26zj3V8sluNseR-1">
          <mxGeometry width="80" relative="1" as="geometry">
            <mxPoint x="290" y="360" as="sourcePoint" />
            <mxPoint x="370" y="360" as="targetPoint" />
          </mxGeometry>
        </mxCell>
        <mxCell id="sqNjKMXXMfO09ryWXXjb-2" value="uses" style="html=1;verticalAlign=bottom;endArrow=block;rounded=0;labelBackgroundColor=none;fontColor=#000000;entryX=0.5;entryY=0;entryDx=0;entryDy=0;exitX=0.5;exitY=1;exitDx=0;exitDy=0;" edge="1" parent="1" source="BOptXhGEqJJCsXxz0c24-3" target="5cB7490FCOMJmC2RYFwi-6">
          <mxGeometry x="0.375" y="-20" width="80" relative="1" as="geometry">
            <mxPoint x="620.0000000000002" y="340" as="sourcePoint" />
            <mxPoint x="680" y="340" as="targetPoint" />
            <mxPoint as="offset" />
          </mxGeometry>
        </mxCell>
        <mxCell id="sqNjKMXXMfO09ryWXXjb-3" value="contains" style="html=1;verticalAlign=bottom;endArrow=block;rounded=0;labelBackgroundColor=none;fontColor=#000000;entryX=1.008;entryY=0.259;entryDx=0;entryDy=0;entryPerimeter=0;" edge="1" parent="1" target="BOptXhGEqJJCsXxz0c24-2">
          <mxGeometry x="-0.1263" y="-8" width="80" relative="1" as="geometry">
            <mxPoint x="270" y="348" as="sourcePoint" />
            <mxPoint x="390" y="360" as="targetPoint" />
            <mxPoint as="offset" />
          </mxGeometry>
        </mxCell>
        <mxCell id="sqNjKMXXMfO09ryWXXjb-4" value="contains" style="html=1;verticalAlign=bottom;endArrow=block;rounded=0;labelBackgroundColor=none;fontColor=#000000;entryX=1;entryY=0.5;entryDx=0;entryDy=0;exitX=0;exitY=0.5;exitDx=0;exitDy=0;" edge="1" parent="1" source="BOptXhGEqJJCsXxz0c24-5" target="1DBgugd92XxTER6m6FTS-4">
          <mxGeometry x="-0.0241" y="-18" width="80" relative="1" as="geometry">
            <mxPoint x="630.0000000000002" y="350" as="sourcePoint" />
            <mxPoint x="690" y="350" as="targetPoint" />
            <mxPoint as="offset" />
          </mxGeometry>
        </mxCell>
        <mxCell id="sqNjKMXXMfO09ryWXXjb-5" value="Monty_list.csv" style="shape=folder;fontStyle=0;spacingTop=10;tabWidth=40;tabHeight=14;tabPosition=left;html=1;fontColor=#000000;" vertex="1" parent="1">
          <mxGeometry x="690" y="447" width="90" height="66" as="geometry" />
        </mxCell>
        <mxCell id="sqNjKMXXMfO09ryWXXjb-6" value="read/write" style="html=1;verticalAlign=bottom;endArrow=block;rounded=0;labelBackgroundColor=none;fontColor=#000000;exitX=1;exitY=0.962;exitDx=0;exitDy=0;exitPerimeter=0;startArrow=classic;startFill=1;entryX=0;entryY=0.667;entryDx=0;entryDy=0;entryPerimeter=0;" edge="1" parent="1" source="5cB7490FCOMJmC2RYFwi-10" target="sqNjKMXXMfO09ryWXXjb-5">
          <mxGeometry width="80" relative="1" as="geometry">
            <mxPoint x="620.0000000000002" y="490" as="sourcePoint" />
            <mxPoint x="680" y="491" as="targetPoint" />
          </mxGeometry>
        </mxCell>
        <mxCell id="67nQjqs9lLvzKYHK2bmk-1" value="After User inputs two tasks:&lt;br&gt;1 : Pick up parcel&lt;br&gt;2 : Throw out trash by 12Apr22" style="text;html=1;align=left;verticalAlign=top;whiteSpace=wrap;rounded=0;fillColor=default;strokeColor=default;" vertex="1" parent="1">
          <mxGeometry x="30" y="180" width="170" height="50" as="geometry" />
        </mxCell>
      </root>
    </mxGraphModel>
  </diagram>
</mxfile>
